<?xml version="1.0" encoding="UTF-8" standalone="no"?>
<!-- Created with Inkscape (http://www.inkscape.org/) -->

<svg
   width="420mm"
   height="297mm"
   viewBox="0 0 420 297"
   version="1.1"
   id="svg1"
   inkscape:version="1.3.2 (091e20e, 2023-11-25)"
   sodipodi:docname="logo ideas.svg"
   xmlns:inkscape="http://www.inkscape.org/namespaces/inkscape"
   xmlns:sodipodi="http://sodipodi.sourceforge.net/DTD/sodipodi-0.dtd"
   xmlns="http://www.w3.org/2000/svg"
   xmlns:svg="http://www.w3.org/2000/svg">
  <sodipodi:namedview
     id="namedview1"
     pagecolor="#ffffff"
     bordercolor="#000000"
     borderopacity="0.25"
     inkscape:showpageshadow="2"
     inkscape:pageopacity="0.0"
     inkscape:pagecheckerboard="0"
     inkscape:deskcolor="#d1d1d1"
     inkscape:document-units="mm"
     showgrid="false"
     inkscape:zoom="2.6753471"
     inkscape:cx="516.38159"
     inkscape:cy="946.41925"
     inkscape:window-width="1512"
     inkscape:window-height="883"
     inkscape:window-x="0"
     inkscape:window-y="38"
     inkscape:window-maximized="1"
     inkscape:current-layer="layer1">
    <inkscape:grid
       type="axonomgrid"
       id="grid26"
       units="mm"
       originx="0"
       originy="0"
       spacingx="0"
       spacingy="1"
       empcolor="#0099e5"
       empopacity="0.30196078"
       color="#0099e5"
       opacity="0.14901961"
       empspacing="5"
       dotted="false"
       gridanglex="30"
       gridanglez="30"
       visible="false"
       snapvisiblegridlinesonly="true" />
  </sodipodi:namedview>
  <defs
     id="defs1">
    <inkscape:perspective
       sodipodi:type="inkscape:persp3d"
       inkscape:vp_x="32.968629 : 160.92296 : 1"
       inkscape:vp_y="0 : 1000 : 0"
       inkscape:vp_z="179.4204 : 183.85766 : 1"
       inkscape:persp3d-origin="105 : 98.999998 : 1"
       id="perspective3" />
  </defs>
  <g
     inkscape:label="Layer 1"
     inkscape:groupmode="layer"
     id="layer1">
    <path
       style="fill:#b3b3b3;stroke-width:0.264583"
       d="m 125.57368,77.499996 21.65063,-12.499999 21.65064,12.499999 -21.65064,12.500001 z"
       id="path27" />
    <path
       style="fill:#e6e6e6;stroke-width:0.264583"
       d="m 147.22431,40.01739 21.65064,12.499999 v 25 L 147.22431,64.982605 Z"
       id="path28"
       sodipodi:nodetypes="ccccc" />
    <path
       style="fill:#f2f2f2;stroke-width:0.264583"
       d="m 125.57368,52.499998 v 24.999998 l 21.65063,-12.499999 v -25 z"
       id="path29" />
    <path
       style="fill:#0044aa;stroke-width:0.264583"
       d="m 155.88457,44.999999 4.33012,2.499998 v 25 l -4.33012,-2.5 z"
       id="path30" />
    <path
       style="fill:#003380;stroke-width:0.264583"
       d="m 160.21469,72.499997 -12.99038,7.500001 -12.99038,-7.500001 4.33013,-2.5 8.66025,5.000001 8.66026,-5.000001 z"
       id="path31"
       sodipodi:nodetypes="ccccccc" />
    <path
       style="fill:#003380;stroke-width:0.264583"
       d="m 168.87495,77.499998 -21.65064,12.443014 -21.65063,-12.443014 4.33013,-2.5 17.3205,10.014773 17.32051,-10.014773 z"
       id="path31-0"
       sodipodi:nodetypes="ccccccc" />
    <path
       style="fill:#0055d4;stroke-width:0.264583"
       d="m 138.56406,69.999997 v -9.999999 l -4.33013,2.5 v 9.999999 z"
       id="path32"
       sodipodi:nodetypes="ccccc" />
    <path
       style="fill:#0044aa;stroke-width:0.264583"
       d="m 164.54483,50.000001 4.33012,2.499998 v 25 l -4.33012,-2.5 z"
       id="path30-1" />
    <path
       style="fill:#0055d4;stroke-width:0.264583"
       d="M 129.90381,74.999998 V 49.999999 l -4.33013,2.5 v 24.999999 z"
       id="path32-8"
       sodipodi:nodetypes="ccccc" />
    <path
       style="fill:#0055d4;stroke-width:0.264583"
       d="m 147.22431,44.999999 v -5 l -17.3205,10 v 4.999999 z"
       id="path32-8-6"
       sodipodi:nodetypes="ccccc" />
    <path
       style="fill:#0044aa;stroke-width:0.264583"
       d="m 147.22431,39.999999 17.32051,10 v 4.999999 l -17.32051,-9.999999 z"
       id="path30-4"
       sodipodi:nodetypes="ccccc" />
    <text
       xml:space="preserve"
       style="font-style:normal;font-variant:normal;font-weight:normal;font-stretch:normal;font-size:13.4962px;font-family:'.Al Bayan PUA';-inkscape-font-specification:'.Al Bayan PUA';white-space:pre;inline-size:78.9609;display:inline;fill:#0055d4;stroke-width:0.264583"
       x="116.91343"
       y="97.5"
       id="text32"
       transform="matrix(0.99323058,0,0,1.0269967,-3.5399017,5.3549084)"><tspan
         x="116.91343"
         y="97.5"
         id="tspan5"><tspan
           style="font-weight:bold;font-family:Futura;-inkscape-font-specification:'Futura Bold'"
           id="tspan3">JORIN AI</tspan></tspan></text>
    <path
       style="fill:#b3b3b3;stroke-width:0.264583"
       d="M 17.320508,49.999999 43.301261,34.999998 69.28203,49.999999 43.301269,64.999998 Z"
       id="path27-1"
       sodipodi:nodetypes="ccccc" />
    <path
       style="fill:#e6e6e6;stroke-width:0.264583"
       d="M 43.301269,4.9999999 69.28203,19.999999 v 30 L 43.301261,34.982606 Z"
       id="path28-0"
       sodipodi:nodetypes="ccccc" />
    <path
       style="fill:#f2f2f2;stroke-width:0.264583"
       d="m 17.320508,19.999999 v 30 l 25.980753,-15.000001 8e-6,-29.9999981 z"
       id="path29-3"
       sodipodi:nodetypes="ccccc" />
    <path
       style="fill:#0044aa;stroke-width:0.264583"
       d="m 51.961521,15 4.33012,2.499998 v 25 l -4.33012,-2.5 z"
       id="path30-11" />
    <path
       style="fill:#003380;stroke-width:0.264583"
       d="m 56.291641,42.499998 -12.99038,7.500001 -12.99038,-7.500001 4.33013,-2.5 8.66025,5.000001 8.66026,-5.000001 z"
       id="path31-5"
       sodipodi:nodetypes="ccccccc" />
    <path
       style="fill:#003380;stroke-width:0.264583"
       d="m 64.951901,47.499999 -21.65064,12.443014 -21.65063,-12.443014 4.33013,-2.5 17.3205,10.014773 17.32051,-10.014773 z"
       id="path31-0-0"
       sodipodi:nodetypes="ccccccc" />
    <path
       style="fill:#0055d4;stroke-width:0.264583"
       d="m 34.641011,39.999998 v -9.999999 l -4.33013,2.5 v 9.999999 z"
       id="path32-84"
       sodipodi:nodetypes="ccccc" />
    <path
       style="fill:#0044aa;stroke-width:0.264583"
       d="M 60.621781,20.000002 64.951901,22.5 v 25 L 60.621781,45 Z"
       id="path30-1-9" />
    <path
       style="fill:#0055d4;stroke-width:0.264583"
       d="M 25.980761,44.999999 V 20 l -4.33013,2.5 v 24.999999 z"
       id="path32-8-3"
       sodipodi:nodetypes="ccccc" />
    <path
       style="fill:#0055d4;stroke-width:0.264583"
       d="m 43.301261,15 v -5 l -17.3205,10 v 4.999999 z"
       id="path32-8-6-0"
       sodipodi:nodetypes="ccccc" />
    <path
       style="fill:#0044aa;stroke-width:0.264583"
       d="m 43.301261,10 17.32051,10 v 4.999999 L 43.301261,15 Z"
       id="path30-4-5"
       sodipodi:nodetypes="ccccc" />
    <path
       style="fill:#b3b3b3;stroke-width:0.264583"
       d="m 38.40669,116.35506 25.980753,-15 25.980769,15 -25.980761,15 z"
       id="path27-1-0"
       sodipodi:nodetypes="ccccc" />
    <path
       style="fill:#e6e6e6;stroke-width:0.264583"
       d="m 64.387451,71.355059 25.980761,15 V 116.35506 L 64.387443,101.33767 Z"
       id="path28-0-9"
       sodipodi:nodetypes="ccccc" />
    <path
       style="fill:#f2f2f2;stroke-width:0.264583"
       d="m 38.40669,86.355059 v 30.000001 l 25.980753,-15 8e-6,-30.000001 z"
       id="path29-3-7"
       sodipodi:nodetypes="ccccc" />
    <path
       style="fill:#0044aa;stroke-width:0.264583"
       d="m 73.170296,91.315479 4.330127,2.5 -0.1226,15.039581 -4.33012,-2.5 z"
       id="path30-11-1"
       sodipodi:nodetypes="ccccc" />
    <path
       style="fill:#003380;stroke-width:0.264583"
       d="m 77.377823,108.85506 -12.99038,7.5 -12.99038,-7.5 4.33013,-2.5 8.66025,5 8.66026,-5 z"
       id="path31-5-7"
       sodipodi:nodetypes="ccccccc" />
    <path
       style="fill:#003380;stroke-width:0.264583"
       d="m 86.038083,113.85506 -21.65064,12.44301 -21.65063,-12.44301 4.33013,-2.5 17.3205,10.01477 17.32051,-10.01477 z"
       id="path31-0-0-4"
       sodipodi:nodetypes="ccccccc" />
    <path
       style="fill:#0055d4;stroke-width:0.264583"
       d="m 55.727193,106.35506 0.122595,-5.03958 -4.330127,2.5 -0.122598,5.03958 z"
       id="path32-84-5"
       sodipodi:nodetypes="ccccc" />
    <path
       style="fill:#0044aa;stroke-width:0.264583"
       d="m 81.707963,86.355059 4.33012,2.5 v 25.000001 l -4.33012,-2.5 z"
       id="path30-1-9-1" />
    <path
       style="fill:#0055d4;stroke-width:0.264583"
       d="M 47.066943,111.35506 V 86.355059 l -4.33013,2.5 v 25.000001 z"
       id="path32-8-3-7"
       sodipodi:nodetypes="ccccc" />
    <path
       style="fill:#0055d4;stroke-width:0.264583"
       d="m 64.387443,81.355059 v -5 l -17.3205,10 v 5 z"
       id="path32-8-6-0-8"
       sodipodi:nodetypes="ccccc" />
    <path
       style="fill:#0044aa;stroke-width:0.264583"
       d="m 64.387443,76.355059 17.32051,10 v 5 l -17.32051,-10 z"
       id="path30-4-5-2"
       sodipodi:nodetypes="ccccc" />
    <path
       style="fill:#b3b3b3;stroke-width:0.264583"
       d="m 128.66462,164.41639 25.98075,-15 25.98077,15 -25.98076,15 z"
       id="path27-1-0-3"
       sodipodi:nodetypes="ccccc" />
    <path
       style="fill:#e6e6e6;stroke-width:0.264583"
       d="m 154.64538,119.41639 25.98076,15 v 30 L 154.64537,149.399 Z"
       id="path28-0-9-0"
       sodipodi:nodetypes="ccccc" />
    <path
       style="fill:#f2f2f2;stroke-width:0.264583"
       d="m 128.66462,134.41639 v 30 l 25.98075,-15 10e-6,-30 z"
       id="path29-3-7-1"
       sodipodi:nodetypes="ccccc" />
    <path
       style="fill:#0044aa;stroke-width:0.264583"
       d="m 163.37002,134.42472 4.33013,2.5 -0.0644,19.99167 -4.33012,-2.5 z"
       id="path30-11-1-9"
       sodipodi:nodetypes="ccccc" />
    <path
       style="fill:#003380;stroke-width:0.264583"
       d="m 167.63575,156.91639 -12.99038,7.5 -12.99038,-7.5 4.33013,-2.5 8.66025,5 8.66026,-5 z"
       id="path31-5-7-4"
       sodipodi:nodetypes="ccccccc" />
    <path
       style="fill:#003380;stroke-width:0.264583"
       d="m 180.69053,164.42471 -26.04515,14.99168 -25.91638,-14.99168 4.33013,-2.5 21.65063,12.5 21.65064,-12.5 z"
       id="path31-0-0-4-5"
       sodipodi:nodetypes="ccccccc" />
    <path
       style="fill:#0055d4;stroke-width:0.264583"
       d="m 145.98512,154.41639 0.12259,-5.03958 -4.33012,2.5 -0.1226,5.03958 z"
       id="path32-84-5-9"
       sodipodi:nodetypes="ccccc" />
    <path
       style="fill:#0044aa;stroke-width:0.264583"
       d="m 176.3604,131.92472 4.26574,2.49167 v 30 l -4.26574,-2.49168 z"
       id="path30-1-9-1-3"
       sodipodi:nodetypes="ccccc" />
    <path
       style="fill:#0055d4;stroke-width:0.264583"
       d="m 133.05913,161.92471 v -29.99999 l -4.33013,2.5 v 29.99999 z"
       id="path32-8-3-7-9"
       sodipodi:nodetypes="ccccc" />
    <path
       style="fill:#0055d4;stroke-width:0.264583"
       d="m 154.70976,124.42472 v -5 l -21.65063,12.5 -0.0644,4.99167 z"
       id="path32-8-6-0-8-6"
       sodipodi:nodetypes="ccccc" />
    <path
       style="fill:#0044aa;stroke-width:0.264583"
       d="m 154.70976,119.42472 21.65064,12.5 v 5 l -21.65064,-12.5 z"
       id="path30-4-5-2-6"
       sodipodi:nodetypes="ccccc" />
    <path
       style="fill:#b3b3b3;stroke-width:0.264583"
       d="m 13.456969,178.09582 25.98075,-15 25.98077,15 -25.98076,15 z"
       id="path27-1-0-3-3"
       sodipodi:nodetypes="ccccc" />
    <path
       style="fill:#e6e6e6;stroke-width:0.264583"
       d="m 39.437729,133.09582 25.98076,15 v 30 l -25.98077,-15.01739 z"
       id="path28-0-9-0-4"
       sodipodi:nodetypes="ccccc" />
    <path
       style="fill:#f2f2f2;stroke-width:0.264583"
       d="m 13.456969,148.09582 v 30 l 25.98075,-15 10e-6,-30 z"
       id="path29-3-7-1-3"
       sodipodi:nodetypes="ccccc" />
    <path
       style="fill:#0044aa;stroke-width:0.264583"
       d="m 52.621695,150.70623 4.330127,2.5 v 20 l -4.330127,-2.5 z"
       id="path30-11-1-9-7"
       sodipodi:nodetypes="ccccc" />
    <path
       style="fill:#003380;stroke-width:0.264583"
       d="m 56.951822,173.20623 -17.320508,10 -17.320507,-10 4.330126,-2.5 12.990381,7.5 12.79679,-7.61041 z"
       id="path31-5-7-4-7"
       sodipodi:nodetypes="ccccccc" />
    <path
       style="fill:#003380;stroke-width:0.264583"
       d="m 65.482879,178.10414 -26.04515,14.99168 -25.91638,-14.99168 4.33013,-2.5 21.65063,12.5 21.65064,-12.5 z"
       id="path31-0-0-4-5-5"
       sodipodi:nodetypes="ccccccc" />
    <path
       style="fill:#0055d4;stroke-width:0.264583"
       d="m 26.640933,170.70623 v -5 l -4.330126,2.5 v 5 z"
       id="path32-84-5-9-1"
       sodipodi:nodetypes="ccccc" />
    <path
       style="fill:#0044aa;stroke-width:0.264583"
       d="m 61.152749,145.60415 4.26574,2.49167 v 30 l -4.26574,-2.49168 z"
       id="path30-1-9-1-3-2"
       sodipodi:nodetypes="ccccc" />
    <path
       style="fill:#0055d4;stroke-width:0.264583"
       d="m 17.851479,175.60414 v -29.99999 l -4.33013,2.5 v 29.99999 z"
       id="path32-8-3-7-9-6"
       sodipodi:nodetypes="ccccc" />
    <path
       style="fill:#0055d4;stroke-width:0.264583"
       d="m 39.502109,138.10415 v -5 l -21.65063,12.5 -0.0644,4.99167 z"
       id="path32-8-6-0-8-6-6"
       sodipodi:nodetypes="ccccc" />
    <path
       style="fill:#0044aa;stroke-width:0.264583"
       d="m 39.502109,133.10415 21.65064,12.5 v 5 l -21.65064,-12.5 z"
       id="path30-4-5-2-6-5"
       sodipodi:nodetypes="ccccc" />
    <text
       xml:space="preserve"
       style="font-style:normal;font-variant:normal;font-weight:normal;font-stretch:normal;font-size:13.4962px;font-family:'.Al Bayan PUA';-inkscape-font-specification:'.Al Bayan PUA';white-space:pre;inline-size:78.9609;display:inline;fill:#0055d4;stroke-width:0.264583"
       x="116.91343"
       y="97.5"
       id="text32-1"
       transform="matrix(1.0590723,0,0,1.101464,-3.7579658,87.810875)"><tspan
         x="116.91343"
         y="97.5"
         id="tspan7"><tspan
           style="font-weight:bold;font-family:Futura;-inkscape-font-specification:'Futura Bold'"
           id="tspan6">JORIN AI</tspan></tspan></text>
    <path
       style="fill:#b3b3b3;stroke-width:0.264583"
       d="m 86.538155,264.99167 25.980755,-15 25.98077,15 -25.98076,15 z"
       id="path27-1-0-3-0"
       sodipodi:nodetypes="ccccc" />
    <path
       style="fill:#e6e6e6;stroke-width:0.264583"
       d="m 112.51892,219.99167 25.98076,15 v 30 l -25.98077,-15.01739 z"
       id="path28-0-9-0-8"
       sodipodi:nodetypes="ccccc" />
    <path
       style="fill:#f2f2f2;stroke-width:0.264583"
       d="m 86.538155,234.99167 v 30 l 25.980755,-15 10e-6,-30 z"
       id="path29-3-7-1-1"
       sodipodi:nodetypes="ccccc" />
    <path
       style="fill:#0044aa;stroke-width:0.264583"
       d="m 121.24356,235 4.33013,2.5 -0.0644,19.99167 -4.33012,-2.5 z"
       id="path30-11-1-9-4"
       sodipodi:nodetypes="ccccc" />
    <path
       style="fill:#003380;stroke-width:0.264583"
       d="m 125.50929,257.49167 -12.99038,7.5 -12.990385,-7.5 4.330135,-2.5 8.66025,5 8.66026,-5 z"
       id="path31-5-7-4-8"
       sodipodi:nodetypes="ccccccc" />
    <path
       style="fill:#003380;stroke-width:0.264583"
       d="m 138.56407,264.99999 -26.04515,14.99168 -25.916385,-14.99168 4.33013,-2.5 21.650635,12.5 21.65064,-12.5 z"
       id="path31-0-0-4-5-8"
       sodipodi:nodetypes="ccccccc" />
    <path
       style="fill:#0055d4;stroke-width:0.264583"
       d="m 103.85866,254.99167 0.12259,-5.03958 -4.330121,2.5 -0.122604,5.03958 z"
       id="path32-84-5-9-4"
       sodipodi:nodetypes="ccccc" />
    <path
       style="fill:#0044aa;stroke-width:0.264583"
       d="m 134.23394,232.5 4.26574,2.49167 v 30 l -4.26574,-2.49168 z"
       id="path30-1-9-1-3-5"
       sodipodi:nodetypes="ccccc" />
    <path
       style="fill:#0055d4;stroke-width:0.264583"
       d="M 90.932665,262.49999 V 232.5 l -4.33013,2.5 v 29.99999 z"
       id="path32-8-3-7-9-7"
       sodipodi:nodetypes="ccccc" />
    <path
       style="fill:#0055d4;stroke-width:0.264583"
       d="m 112.5833,225 v -5 l -21.650635,12.5 -0.0644,4.99167 z"
       id="path32-8-6-0-8-6-9"
       sodipodi:nodetypes="ccccc" />
    <path
       style="fill:#0044aa;stroke-width:0.264583"
       d="m 112.5833,220 21.65064,12.5 v 5 L 112.5833,225 Z"
       id="path30-4-5-2-6-8"
       sodipodi:nodetypes="ccccc" />
    <text
       xml:space="preserve"
       style="font-style:normal;font-variant:normal;font-weight:normal;font-stretch:normal;font-size:35.929px;font-family:'.Al Bayan PUA';-inkscape-font-specification:'.Al Bayan PUA';white-space:pre;inline-size:245.317;display:inline;fill:#0055d4;stroke-width:0.264583"
       x="116.91343"
       y="97.5"
       id="text32-1-4"
       transform="matrix(1.0590723,0,0,1.1014683,23.403869,157.60683)"><tspan
         x="116.91343"
         y="97.5"
         id="tspan9"><tspan
           style="font-weight:bold;font-family:Futura;-inkscape-font-specification:'Futura Bold'"
           id="tspan8">JORIN AI</tspan></tspan></text>
    <text
       xml:space="preserve"
       style="font-style:normal;font-variant:normal;font-weight:bold;font-stretch:normal;font-size:39.1583px;font-family:Futura;-inkscape-font-specification:'Futura Bold';fill:#0055d4;stroke-width:0.264583"
       x="142.89418"
       y="247.49998"
       id="text33"><tspan
         sodipodi:role="line"
         id="tspan33"
         style="stroke-width:0.264583"></tspan></text>
  </g>
</svg>
